<svg width="203" height="203" viewBox="0 0 203 203" fill="none" xmlns="http://www.w3.org/2000/svg">
<path d="M168.692 40.4414V156.734C168.691 158.6 167.949 160.389 166.63 161.708C165.31 163.027 163.52 163.768 161.655 163.768H37.9515C36.0874 163.766 34.3004 163.024 32.9831 161.705C31.6657 160.386 30.9258 158.598 30.9258 156.734V40.4414C30.9258 38.5794 31.6641 36.7933 32.9789 35.4748C34.2936 34.1563 36.0776 33.413 37.9396 33.4077H161.643C162.568 33.4062 163.484 33.5869 164.339 33.9396C165.194 34.2924 165.971 34.8101 166.625 35.4634C167.28 36.1166 167.8 36.8925 168.154 37.7467C168.509 38.6008 168.692 39.5165 168.692 40.4414Z" fill="#F5F5F5"/>
<path style="mix-blend-mode:multiply" d="M168.692 127.581V156.738C168.691 158.604 167.949 160.393 166.63 161.712C165.31 163.031 163.52 163.772 161.655 163.772H123.168C119.35 143.595 134.908 124.809 155.489 124.809C160.035 124.803 164.533 125.747 168.692 127.581Z" fill="url(#paint0_linear_4265_11165)"/>
<path d="M168.692 40.4414V49.0768H30.9258V40.4414C30.9258 38.5794 31.6641 36.7933 32.9789 35.4748C34.2936 34.1563 36.0776 33.413 37.9396 33.4077H161.643C162.568 33.4062 163.484 33.5869 164.339 33.9396C165.194 34.2924 165.971 34.8101 166.625 35.4634C167.28 36.1166 167.8 36.8925 168.154 37.7467C168.509 38.6008 168.692 39.5165 168.692 40.4414Z" fill="url(#paint1_linear_4265_11165)"/>
<path d="M161.655 164.957H37.9515C35.7726 164.953 33.6843 164.085 32.1443 162.544C30.6044 161.002 29.7384 158.913 29.7363 156.734V40.4413C29.7384 38.2645 30.6027 36.1772 32.1401 34.6361C33.6775 33.0949 35.7628 32.2256 37.9396 32.2183H161.643C163.825 32.2172 165.919 33.0827 167.464 34.6246C169.009 36.1665 169.879 38.2587 169.882 40.4413V156.734C169.879 158.915 169.011 161.005 167.468 162.547C165.926 164.088 163.835 164.955 161.655 164.957ZM37.9396 34.5972C36.3934 34.6035 34.9126 35.2218 33.8211 36.317C32.7296 37.4122 32.1163 38.8951 32.1152 40.4413V156.734C32.1163 158.284 32.7323 159.77 33.8281 160.865C34.9239 161.961 36.4098 162.577 37.9594 162.578H161.663C163.213 162.577 164.699 161.961 165.795 160.866C166.892 159.77 167.509 158.284 167.511 156.734V40.4413C167.509 38.8913 166.892 37.4055 165.795 36.3098C164.699 35.2142 163.213 34.5982 161.663 34.5972H37.9396Z" fill="url(#paint2_linear_4265_11165)"/>
<path d="M41.504 44.2873C43.1857 44.2873 44.549 42.924 44.549 41.2423C44.549 39.5606 43.1857 38.1973 41.504 38.1973C39.8223 38.1973 38.459 39.5606 38.459 41.2423C38.459 42.924 39.8223 44.2873 41.504 44.2873Z" fill="#F5F5F5"/>
<path d="M53.0338 44.2873C54.7155 44.2873 56.0788 42.924 56.0788 41.2423C56.0788 39.5606 54.7155 38.1973 53.0338 38.1973C51.3521 38.1973 49.9888 39.5606 49.9888 41.2423C49.9888 42.924 51.3521 44.2873 53.0338 44.2873Z" fill="#F5F5F5"/>
<path d="M100.755 135.249C122.468 135.249 140.07 117.647 140.07 95.9333C140.07 74.22 122.468 56.6179 100.755 56.6179C79.0413 56.6179 61.4392 74.22 61.4392 95.9333C61.4392 117.647 79.0413 135.249 100.755 135.249Z" fill="#E6E8EC"/>
<path d="M108.24 154.554H93.2691C92.2018 154.554 91.1782 154.13 90.4234 153.375C89.6687 152.62 89.2448 151.597 89.2448 150.529C89.2448 149.462 89.6687 148.438 90.4234 147.684C91.1782 146.929 92.2018 146.505 93.2691 146.505H108.24C109.308 146.505 110.331 146.929 111.086 147.684C111.841 148.438 112.265 149.462 112.265 150.529C112.265 151.597 111.841 152.62 111.086 153.375C110.331 154.13 109.308 154.554 108.24 154.554Z" fill="#A9AFC4"/>
<path d="M155.489 184.635C170.368 184.635 182.43 172.573 182.43 157.694C182.43 142.815 170.368 130.753 155.489 130.753C140.61 130.753 128.548 142.815 128.548 157.694C128.548 172.573 140.61 184.635 155.489 184.635Z" fill="#F5F5F5"/>
<path d="M155.489 185.82C149.925 185.821 144.486 184.172 139.859 181.081C135.233 177.991 131.626 173.597 129.497 168.457C127.367 163.316 126.81 157.66 127.895 152.203C128.98 146.746 131.66 141.733 135.594 137.799C139.528 133.864 144.541 131.185 149.998 130.1C155.455 129.014 161.112 129.572 166.252 131.701C171.393 133.831 175.786 137.437 178.877 142.064C181.967 146.691 183.617 152.13 183.616 157.694C183.61 165.152 180.644 172.302 175.371 177.575C170.097 182.849 162.947 185.814 155.489 185.82ZM155.489 131.942C150.397 131.941 145.418 133.451 141.183 136.279C136.948 139.107 133.647 143.128 131.697 147.832C129.747 152.536 129.235 157.713 130.227 162.708C131.218 167.703 133.668 172.292 137.268 175.895C140.867 179.497 145.454 181.952 150.448 182.948C155.442 183.944 160.619 183.437 165.325 181.491C170.031 179.545 174.055 176.248 176.887 172.016C179.719 167.783 181.233 162.806 181.237 157.714C181.237 150.883 178.525 144.331 173.697 139.499C168.869 134.666 162.32 131.949 155.489 131.942Z" fill="url(#paint3_linear_4265_11165)"/>
<path d="M96.5837 105.405C96.6458 102.445 97.3944 99.5392 98.7704 96.9172C100.146 94.2951 102.112 92.0284 104.513 90.2953C105.401 89.6583 106.113 88.807 106.583 87.8208C107.053 86.8345 107.266 85.7453 107.202 84.6546C107.138 83.564 106.799 82.5073 106.216 81.5829C105.634 80.6586 104.827 79.8967 103.87 79.3682C102.914 78.8398 101.84 78.5618 100.747 78.5604C99.6545 78.5589 98.5794 78.834 97.6217 79.3599C96.6641 79.8859 95.8551 80.6456 95.2701 81.5684C94.6851 82.4912 94.3432 83.5469 94.2761 84.6375H85.9341C86.0015 82.1155 86.7115 79.6524 87.9968 77.4815C89.282 75.3105 91.1001 73.5035 93.2788 72.2315C95.4575 70.9595 97.9248 70.2645 100.447 70.2124C102.97 70.1603 105.463 70.7528 107.693 71.9337C109.922 73.1147 111.813 74.8451 113.187 76.9611C114.561 79.0772 115.372 81.5088 115.544 84.0258C115.715 86.5428 115.241 89.062 114.167 91.3449C113.093 93.6277 111.455 95.5987 109.406 97.0712C108.078 98.0286 106.985 99.276 106.211 100.719C105.437 102.161 105.001 103.761 104.938 105.397L96.5837 105.405Z" fill="#A9AFC4"/>
<path d="M104.866 113.268H96.4766V121.657H104.866V113.268Z" fill="#A9AFC4"/>
<path d="M133.675 182.169H131.296V179.79H133.675V182.169ZM127.331 182.169H124.952V179.79H127.331V182.169ZM120.987 182.169H118.608V179.79H120.987V182.169ZM114.643 182.169H112.265V179.79H114.643V182.169ZM108.3 182.169H105.921V179.79H108.3V182.169ZM101.956 182.169H99.577V179.79H101.956V182.169ZM95.6122 182.169H93.2333V179.79H95.6122V182.169ZM89.2684 182.169H86.8895V179.79H89.2684V182.169ZM82.9247 182.169H80.5458V179.79H82.9247V182.169ZM76.5809 182.169H74.202V179.79H76.5809V182.169Z" fill="#A9AFC4"/>
<path d="M154 167C160.075 167 165 162.075 165 156C165 149.925 160.075 145 154 145C147.925 145 143 149.925 143 156C143 162.075 147.925 167 154 167Z" stroke="#A9AFC4" stroke-width="2" stroke-linejoin="round"/>
<path d="M157.295 151.499C156.817 151.023 156.248 150.645 155.622 150.388C154.996 150.131 154.325 149.999 153.648 150C152.97 149.999 152.299 150.131 151.673 150.388C151.047 150.645 150.479 151.023 150 151.499M162 164L167 169" stroke="#A9AFC4" stroke-width="2" stroke-linecap="round" stroke-linejoin="round"/>
<path d="M76.5889 176.225H74.21V173.846H76.5889V176.225ZM76.5889 169.882H74.21V167.681H76.5889V169.882Z" fill="#A9AFC4"/>
<path d="M176.851 23.6354L171.559 28.9294L173.241 30.6113L178.534 25.3172L176.851 23.6354Z" fill="#A9AFC4"/>
<path d="M167.42 18.3691H165.041V25.8548H167.42V18.3691Z" fill="#A9AFC4"/>
<path d="M184.016 34.3079H176.531V36.6868H184.016V34.3079Z" fill="#A9AFC4"/>
<path d="M21.5331 170.052C20.7933 170.053 20.0699 169.834 19.4544 169.424C18.839 169.013 18.3591 168.429 18.0756 167.746C17.7922 167.063 17.7178 166.311 17.8619 165.585C18.0061 164.859 18.3622 164.193 18.8854 163.67C19.4085 163.146 20.0751 162.79 20.8007 162.646C21.5263 162.502 22.2784 162.576 22.9618 162.86C23.6451 163.143 24.229 163.623 24.6395 164.239C25.05 164.854 25.2688 165.577 25.268 166.317C25.2659 167.307 24.8717 168.256 24.1717 168.956C23.4718 169.656 22.523 170.05 21.5331 170.052ZM21.5331 164.957C21.264 164.957 21.0006 165.036 20.7765 165.185C20.5523 165.334 20.3774 165.546 20.2739 165.794C20.1703 166.043 20.1428 166.316 20.1948 166.58C20.2469 166.844 20.3761 167.087 20.5661 167.277C20.7561 167.468 20.9984 167.598 21.2624 167.651C21.5263 167.704 21.7999 167.677 22.0486 167.574C22.2974 167.471 22.51 167.297 22.6596 167.073C22.8092 166.849 22.8891 166.586 22.8891 166.317C22.888 165.958 22.745 165.613 22.491 165.358C22.237 165.103 21.8928 164.959 21.5331 164.957Z" fill="url(#paint4_linear_4265_11165)" fill-opacity="0.5"/>
<path d="M38.8952 183.271C37.8817 183.273 36.8905 182.974 36.047 182.412C35.2036 181.85 34.5458 181.05 34.1569 180.114C33.7679 179.178 33.6654 178.148 33.8621 177.154C34.0589 176.16 34.5461 175.246 35.2622 174.529C35.9783 173.812 36.891 173.323 37.8849 173.125C38.8788 172.927 39.9092 173.028 40.8457 173.415C41.7822 173.803 42.5827 174.459 43.1459 175.302C43.7092 176.144 44.0098 177.135 44.0098 178.148C44.0088 179.505 43.4698 180.806 42.5111 181.767C41.5524 182.727 40.2521 183.268 38.8952 183.271ZM38.8952 175.409C38.3522 175.408 37.8212 175.568 37.3694 175.869C36.9176 176.171 36.5653 176.599 36.3571 177.101C36.149 177.602 36.0943 178.154 36.2 178.687C36.3058 179.219 36.5672 179.709 36.9511 180.092C37.3351 180.476 37.8243 180.738 38.3569 180.844C38.8895 180.949 39.4415 180.895 39.943 180.686C40.4445 180.478 40.8729 180.126 41.1741 179.674C41.4753 179.222 41.6356 178.691 41.6349 178.148C41.6338 177.422 41.3448 176.726 40.8313 176.212C40.3177 175.699 39.6215 175.41 38.8952 175.409Z" fill="url(#paint5_linear_4265_11165)" fill-opacity="0.5"/>
<path d="M76.5889 160.116H74.21V157.737H76.5889V160.116ZM76.5889 153.772H74.21V151.394H76.5889V153.772ZM76.5889 147.429H74.21V145.05H76.5889V147.429ZM76.5889 141.085H74.21V138.706H76.5889V141.085ZM76.5889 134.741H74.21V132.362H76.5889V134.741Z" fill="#A9AFC4"/>
<defs>
<linearGradient id="paint0_linear_4265_11165" x1="122.589" y1="144.289" x2="168.692" y2="144.289" gradientUnits="userSpaceOnUse">
<stop stop-color="#CACFDD"/>
<stop offset="1" stop-color="#EEF0F1"/>
</linearGradient>
<linearGradient id="paint1_linear_4265_11165" x1="99.809" y1="33.4077" x2="99.809" y2="49.0768" gradientUnits="userSpaceOnUse">
<stop stop-color="#9596B2"/>
<stop offset="0.546875" stop-color="#BCC6CE"/>
<stop offset="1" stop-color="#CBDBDD"/>
</linearGradient>
<linearGradient id="paint2_linear_4265_11165" x1="99.809" y1="32.2183" x2="99.809" y2="164.957" gradientUnits="userSpaceOnUse">
<stop stop-color="#9596B2"/>
<stop offset="0.546875" stop-color="#BCC6CE"/>
<stop offset="1" stop-color="#CBDBDD"/>
</linearGradient>
<linearGradient id="paint3_linear_4265_11165" x1="155.485" y1="129.559" x2="155.485" y2="185.82" gradientUnits="userSpaceOnUse">
<stop stop-color="#A9AFC4"/>
<stop offset="1" stop-color="#A9AFC4"/>
</linearGradient>
<linearGradient id="paint4_linear_4265_11165" x1="21.5291" y1="162.574" x2="21.5291" y2="170.052" gradientUnits="userSpaceOnUse">
<stop stop-color="#A9AFC4"/>
<stop offset="1" stop-color="#232224" stop-opacity="0.6"/>
</linearGradient>
<linearGradient id="paint5_linear_4265_11165" x1="38.8872" y1="173.026" x2="38.8872" y2="183.271" gradientUnits="userSpaceOnUse">
<stop stop-color="#A9AFC4"/>
<stop offset="1" stop-color="#232224" stop-opacity="0.6"/>
</linearGradient>
</defs>
</svg>
